Edge.of.Darkness.2010.1080p.BluRay.mkv
**************************************

TiTLE......  Edge of Darkness
YEAR.......  2010
GENRE......  Drama | Thriller  
iMDB RATE..  User Rating: 6.8/10 (14,075 votes)
iMDB URL...  http://www.imdb.com/title/tt1226273/
*************************************************

Video
Duration                         : 1h 56mn
Overall bit rate                 : 7 734 Kbps
Width                            : 1 920 pixels
Height                           : 816 pixels
Display aspect ratio             : 2.35:1
Stream size                      : 4.95 GiB (78%)

Audio
Format                           : DTS
Format/Info                      : Digital Theater Systems
Bit rate                         : 1 510 Kbps
Channel(s)                       : 6 channels
Channel positions                : Front: L C R, Surround: L R, LFE
Sampling rate                    : 48.0 KHz
Resolution                       : 24 bits
Stream size                      : 1.23 GiB (20%)
Language                         : English

Subtitles: English, Dutch, French, Spanish, Portuguese
******************************************************
